<?xml version="1.0" standalone="no"?>
<!DOCTYPE svg PUBLIC "-//W3C//DTD SVG 20010904//EN"
 "http://www.w3.org/TR/2001/REC-SVG-20010904/DTD/svg10.dtd">
<svg version="1.0" xmlns="http://www.w3.org/2000/svg"
 width="512.000000pt" height="512.000000pt" viewBox="0 0 512.000000 512.000000"
 preserveAspectRatio="xMidYMid meet">
<metadata>
Created by potrace 1.14, written by Peter Selinger 2001-2017
</metadata>
<g transform="translate(0.000000,512.000000) scale(0.100000,-0.100000)"
fill="#000000" stroke="none">
<path d="M1870 5113 c-257 -41 -498 -197 -638 -412 -99 -154 -142 -310 -145
-526 l-2 -140 -135 -2 c-74 -1 -142 -2 -150 -2 -13 -1 -15 -24 -15 -148 l1
-148 139 -2 c77 0 145 -2 151 -2 7 -1 10 -247 10 -803 1 -791 4 -923 24 -1013
6 -25 13 -62 16 -81 19 -118 121 -357 209 -489 73 -109 110 -152 221 -261 150
-147 336 -266 524 -334 l75 -28 3 -361 2 -361 150 0 150 0 0 328 0 328 150 0
150 -1 0 -327 0 -328 150 0 150 0 0 358 0 359 98 37 c289 110 546 316 720 577
49 73 133 231 146 277 7 22 10 22 161 22 l153 0 -3 373 c-2 388 -6 424 -51
574 -138 463 -540 808 -1014 873 -45 6 -144 12 -221 12 l-139 1 0 424 c0 232
0 425 -1 428 -36 182 -79 294 -158 407 -130 188 -312 313 -541 373 -61 17
-277 28 -340 18z"/>
</g>
</svg>
