<svg xml:space="preserve" width="648.508" height="469.622" xmlns="http://www.w3.org/2000/svg"><defs><linearGradient x1="0" y1="0" x2="1" y2="0" gradientUnits="userSpaceOnUse" gradientTransform="scale(231.63477 -231.63477) rotate(20 6.671 -.05)" spreadMethod="pad" id="a"><stop style="stop-opacity:1;stop-color:#fbcbbb" offset="0"/><stop style="stop-opacity:1;stop-color:#d91920" offset=".288"/><stop style="stop-opacity:1;stop-color:#b01419" offset=".687"/><stop style="stop-opacity:1;stop-color:#730b0e" offset="1"/></linearGradient><linearGradient x1="0" y1="0" x2="1" y2="0" gradientUnits="userSpaceOnUse" gradientTransform="matrix(0 171.8042 171.8042 0 232.858 398.686)" spreadMethod="pad" id="b"><stop style="stop-opacity:1;stop-color:#d91920" offset="0"/><stop style="stop-opacity:1;stop-color:#730b0e" offset="1"/></linearGradient><linearGradient x1="0" y1="0" x2="1" y2="0" gradientUnits="userSpaceOnUse" gradientTransform="matrix(0 125.24805 125.24805 0 143.314 386.353)" spreadMethod="pad" id="c"><stop style="stop-opacity:1;stop-color:#d91920" offset="0"/><stop style="stop-opacity:1;stop-color:#730b0e" offset="1"/></linearGradient><linearGradient x1="0" y1="0" x2="1" y2="0" gradientUnits="userSpaceOnUse" gradientTransform="matrix(18.90918 0 0 -18.90918 136.375 478.234)" spreadMethod="pad" id="f"><stop style="stop-opacity:1;stop-color:#918f90" offset="0"/><stop style="stop-opacity:1;stop-color:#fff" offset=".338"/><stop style="stop-opacity:1;stop-color:#fff" offset="1"/></linearGradient><linearGradient x1="0" y1="0" x2="1" y2="0" gradientUnits="userSpaceOnUse" gradientTransform="matrix(18.90967 0 0 -18.90967 128.186 427.64)" spreadMethod="pad" id="g"><stop style="stop-opacity:1;stop-color:#918f90" offset="0"/><stop style="stop-opacity:1;stop-color:#fff" offset=".338"/><stop style="stop-opacity:1;stop-color:#fff" offset="1"/></linearGradient><linearGradient x1="0" y1="0" x2="1" y2="0" gradientUnits="userSpaceOnUse" gradientTransform="matrix(24.46094 0 0 -24.46094 188.967 498.344)" spreadMethod="pad" id="h"><stop style="stop-opacity:1;stop-color:#918f90" offset="0"/><stop style="stop-opacity:1;stop-color:#fff" offset=".338"/><stop style="stop-opacity:1;stop-color:#fff" offset="1"/></linearGradient><linearGradient x1="0" y1="0" x2="1" y2="0" gradientUnits="userSpaceOnUse" gradientTransform="matrix(24.46094 0 0 -24.46094 236.787 529.586)" spreadMethod="pad" id="i"><stop style="stop-opacity:1;stop-color:#918f90" offset="0"/><stop style="stop-opacity:1;stop-color:#fff" offset=".338"/><stop style="stop-opacity:1;stop-color:#fff" offset="1"/></linearGradient><linearGradient x1="0" y1="0" x2="1" y2="0" gradientUnits="userSpaceOnUse" gradientTransform="matrix(24.46094 0 0 -24.46094 202.066 469.565)" spreadMethod="pad" id="j"><stop style="stop-opacity:1;stop-color:#918f90" offset="0"/><stop style="stop-opacity:1;stop-color:#fff" offset=".338"/><stop style="stop-opacity:1;stop-color:#fff" offset="1"/></linearGradient><linearGradient x1="0" y1="0" x2="1" y2="0" gradientUnits="userSpaceOnUse" gradientTransform="matrix(24.46094 0 0 -24.46094 249.017 501.198)" spreadMethod="pad" id="k"><stop style="stop-opacity:1;stop-color:#918f90" offset="0"/><stop style="stop-opacity:1;stop-color:#fff" offset=".338"/><stop style="stop-opacity:1;stop-color:#fff" offset="1"/></linearGradient><linearGradient x1="0" y1="0" x2="1" y2="0" gradientUnits="userSpaceOnUse" gradientTransform="matrix(24.46094 0 0 -24.46094 262.183 472.515)" spreadMethod="pad" id="l"><stop style="stop-opacity:1;stop-color:#918f90" offset="0"/><stop style="stop-opacity:1;stop-color:#fff" offset=".338"/><stop style="stop-opacity:1;stop-color:#fff" offset="1"/></linearGradient><linearGradient x1="0" y1="0" x2="1" y2="0" gradientUnits="userSpaceOnUse" gradientTransform="matrix(24.46094 0 0 -24.46094 215.216 440.57)" spreadMethod="pad" id="m"><stop style="stop-opacity:1;stop-color:#918f90" offset="0"/><stop style="stop-opacity:1;stop-color:#fff" offset=".338"/><stop style="stop-opacity:1;stop-color:#fff" offset="1"/></linearGradient><linearGradient x1="0" y1="0" x2="1" y2="0" gradientUnits="userSpaceOnUse" gradientTransform="matrix(27.4414 0 0 -27.4414 193.777 564.883)" spreadMethod="pad" id="n"><stop style="stop-opacity:1;stop-color:#918f90" offset="0"/><stop style="stop-opacity:1;stop-color:#fff" offset=".338"/><stop style="stop-opacity:1;stop-color:#fff" offset="1"/></linearGradient><linearGradient x1="0" y1="0" x2="1" y2="0" gradientUnits="userSpaceOnUse" gradientTransform="matrix(27.4414 0 0 -27.4414 146.699 535.607)" spreadMethod="pad" id="o"><stop style="stop-opacity:1;stop-color:#918f90" offset="0"/><stop style="stop-opacity:1;stop-color:#fff" offset=".338"/><stop style="stop-opacity:1;stop-color:#fff" offset="1"/></linearGradient><linearGradient x1="0" y1="0" x2="1" y2="0" gradientUnits="userSpaceOnUse" gradientTransform="matrix(27.4414 0 0 -27.4414 112.185 534.208)" spreadMethod="pad" id="p"><stop style="stop-opacity:1;stop-color:#918f90" offset="0"/><stop style="stop-opacity:1;stop-color:#fff" offset=".338"/><stop style="stop-opacity:1;stop-color:#fff" offset="1"/></linearGradient><linearGradient x1="0" y1="0" x2="1" y2="0" gradientUnits="userSpaceOnUse" gradientTransform="matrix(27.44092 0 0 -27.44092 158.273 562.546)" spreadMethod="pad" id="q"><stop style="stop-opacity:1;stop-color:#918f90" offset="0"/><stop style="stop-opacity:1;stop-color:#fff" offset=".338"/><stop style="stop-opacity:1;stop-color:#fff" offset="1"/></linearGradient><linearGradient x1="0" y1="0" x2="1" y2="0" gradientUnits="userSpaceOnUse" gradientTransform="scale(265.08496 -265.08496) rotate(24 4.299 1.462)" spreadMethod="pad" id="r"><stop style="stop-opacity:1;stop-color:#f6836c" offset="0"/><stop style="stop-opacity:1;stop-color:#d91920" offset=".141"/><stop style="stop-opacity:1;stop-color:#b01419" offset=".687"/><stop style="stop-opacity:1;stop-color:#730b0e" offset="1"/></linearGradient><linearGradient x1="0" y1="0" x2="1" y2="0" gradientUnits="userSpaceOnUse" gradientTransform="translate(508.945 354.22) scale(-91.45117 91.45117)" spreadMethod="pad" id="u"><stop style="stop-opacity:1;stop-color:#d91920" offset="0"/><stop style="stop-opacity:1;stop-color:#730b0e" offset="1"/></linearGradient><linearGradient x1="0" y1="0" x2="1" y2="0" gradientUnits="userSpaceOnUse" gradientTransform="matrix(0 101.96484 101.96484 0 340.467 234.958)" spreadMethod="pad" id="v"><stop style="stop-opacity:1;stop-color:#d91920" offset="0"/><stop style="stop-opacity:1;stop-color:#730b0e" offset="1"/></linearGradient><linearGradient x1="0" y1="0" x2="1" y2="0" gradientUnits="userSpaceOnUse" gradientTransform="scale(37.87134 -37.87134) rotate(-60 -1.652 -14.831)" spreadMethod="pad" id="w"><stop style="stop-opacity:1;stop-color:#918f90" offset="0"/><stop style="stop-opacity:1;stop-color:#fff" offset=".338"/><stop style="stop-opacity:1;stop-color:#fff" offset="1"/></linearGradient><linearGradient x1="0" y1="0" x2="1" y2="0" gradientUnits="userSpaceOnUse" gradientTransform="scale(13.59375 -13.59375) rotate(-56 -6.542 -35.908)" spreadMethod="pad" id="x"><stop style="stop-opacity:1;stop-color:#918f90" offset="0"/><stop style="stop-opacity:1;stop-color:#fff" offset=".338"/><stop style="stop-opacity:1;stop-color:#fff" offset="1"/></linearGradient><linearGradient x1="0" y1="0" x2="1" y2="0" gradientUnits="userSpaceOnUse" gradientTransform="scale(11.6272 -11.6272) rotate(-64 -4.685 -35.49)" spreadMethod="pad" id="y"><stop style="stop-opacity:1;stop-color:#918f90" offset="0"/><stop style="stop-opacity:1;stop-color:#fff" offset=".338"/><stop style="stop-opacity:1;stop-color:#fff" offset="1"/></linearGradient><linearGradient x1="0" y1="0" x2="1" y2="0" gradientUnits="userSpaceOnUse" gradientTransform="scale(12.39111 -12.39111) rotate(-60 -6.244 -33.001)" spreadMethod="pad" id="z"><stop style="stop-opacity:1;stop-color:#918f90" offset="0"/><stop style="stop-opacity:1;stop-color:#fff" offset=".338"/><stop style="stop-opacity:1;stop-color:#fff" offset="1"/></linearGradient><clipPath clipPathUnits="userSpaceOnUse" id="d"><path d="M0 792h612V0H0Z"/></clipPath><clipPath clipPathUnits="userSpaceOnUse" id="e"><path d="M93.042 581.792h151.724v-64.307H93.042Z"/></clipPath><clipPath clipPathUnits="userSpaceOnUse" id="s"><path d="M0 792h612V0H0Z"/></clipPath><clipPath clipPathUnits="userSpaceOnUse" id="t"><path d="M241.23 507.077h214.702V319.361H241.23Z"/></clipPath><clipPath clipPathUnits="userSpaceOnUse" id="A"><path d="M0 792h612V0H0Z"/></clipPath></defs><g style="fill:#000;fill-opacity:.53416127"><path d="m193.777 386.353 68.406 1.057 44.938 78.418-93.693-19.631z" style="fill:#000;stroke:none;fill-opacity:.53416127" transform="matrix(1.33333 0 0 -1.33333 -110.068 778.64)"/></g><g style="fill:#000;fill-opacity:.53416127"><path d="m308.688 263.614 134.722-30.291 110.478 43.511s52.251 22.037-38 51.018c-16.388 5.262-33.279 7.562-50.027 7.563-69.869.003-137.412-39.997-157.173-71.801" style="fill:#000;stroke:none;fill-opacity:.53416127" transform="matrix(1.33333 0 0 -1.33333 -110.068 778.64)"/></g><path d="M205.965 580.957c-22.802-2.487-41.458-12.645-41.458-12.645s-56.799-32.131-71.724-42.081c-14.925-9.951-9.121-30.264-9.121-30.264l35.655-73.796c17.826-23.632 27.362-27.364 58.871-34.321 31.507-6.957 52.238 8.326 52.238 8.326s56.383 32.628 71.146 45.479c14.763 12.852 1.976 48.093 1.976 48.093s-22.543 58.042-30.614 73.381c-8.072 15.34-22.608 19.901-31.703 20.731-.91.083-1.989.12-3.197.12-10.87 0-32.069-3.023-32.069-3.023" style="fill:url(#a);stroke:none" transform="matrix(1.33333 0 0 -1.33333 -110.068 778.64)"/><path d="m241.231 568.312-67.188-42.081c-17.874-11.195-9.536-31.508-9.536-31.508s26.533-58.457 38.141-81.504c11.61-23.047 30.717-11.779 30.717-11.779s47.641 32.338 61.197 43.019c13.555 10.68 7.01 40.548 7.01 40.548s-21.811 55.735-32.175 73.978c-5.242 9.225-12.385 11.505-18.167 11.505-5.65 0-9.999-2.178-9.999-2.178" style="fill:url(#b);stroke:none" transform="matrix(1.33333 0 0 -1.33333 -110.068 778.64)"/><path d="M112.683 511.305c-33.996 2.073-24.46-18.656-24.46-18.656s22.458-52.604 26.736-61.46c4.278-8.856 9.245-15.241 18.846-25.41 9.6-10.169 31.945-18.019 53.494-19.378 21.548-1.36 8.321 26.818 8.321 26.818s-14.53 31.754-33.056 67.644c-14.212 27.533-35.973 30.738-45.338 30.738-2.842 0-4.543-.296-4.543-.296" style="fill:url(#c);stroke:none" transform="matrix(1.33333 0 0 -1.33333 -110.068 778.64)"/><g clip-path="url(#d)" transform="matrix(1.33333 0 0 -1.33333 -110.068 778.64)"><g clip-path="url(#e)" opacity=".3"><path d="m0 0 42.702 24.772s20.296 11.609-3.279 11.297c-23.574-.311-45.337-4-51.694-6.306-6.356-2.306-18.865-8.116-25.188-11.725-6.323-3.608-58.74-34.348-58.74-34.348s-15.739-12.712 10.38-11.882c26.119.829 44.302 1.872 71.308 18.656z" style="fill:#fff;fill-opacity:1;fill-rule:nonzero;stroke:none" transform="translate(193.942 545.717)"/></g></g><path d="M138.331 490.688c-3.179-1.917-2.399-9.043 1.741-15.92 4.142-6.879 10.077-10.902 13.256-8.987 3.18 1.916 2.401 9.043-1.741 15.921-3.443 5.718-8.126 9.463-11.435 9.463-.671 0-1.285-.154-1.821-.477" style="fill:url(#f);stroke:none" transform="matrix(1.33333 0 0 -1.33333 -110.068 778.64)"/><path d="M130.142 440.094c-3.18-1.917-2.4-9.043 1.74-15.92 4.142-6.879 10.077-10.901 13.256-8.988 3.181 1.915 2.402 9.043-1.74 15.92-3.444 5.72-8.127 9.464-11.435 9.464-.671 0-1.285-.154-1.821-.476" style="fill:url(#g);stroke:none" transform="matrix(1.33333 0 0 -1.33333 -110.068 778.64)"/><path d="M188.967 498.344c0-8.298 5.475-15.022 12.231-15.022 6.754 0 12.23 6.724 12.23 15.022 0 8.295-5.476 15.021-12.23 15.021-6.756 0-12.231-6.726-12.231-15.021" style="fill:url(#h);stroke:none" transform="matrix(1.33333 0 0 -1.33333 -110.068 778.64)"/><path d="M236.786 529.585c0-8.296 5.476-15.022 12.231-15.022 6.756 0 12.23 6.726 12.23 15.022s-5.474 15.023-12.23 15.023c-6.755 0-12.231-6.727-12.231-15.023" style="fill:url(#i);stroke:none" transform="matrix(1.33333 0 0 -1.33333 -110.068 778.64)"/><path d="M202.066 469.566c0-8.297 5.476-15.023 12.231-15.023s12.23 6.726 12.23 15.023c0 8.295-5.475 15.022-12.23 15.022-6.755 0-12.231-6.727-12.231-15.022" style="fill:url(#j);stroke:none" transform="matrix(1.33333 0 0 -1.33333 -110.068 778.64)"/><path d="M249.017 501.197c0-8.296 5.476-15.021 12.23-15.021 6.756 0 12.231 6.725 12.231 15.021 0 8.297-5.475 15.023-12.231 15.023-6.754 0-12.23-6.726-12.23-15.023" style="fill:url(#k);stroke:none" transform="matrix(1.33333 0 0 -1.33333 -110.068 778.64)"/><path d="M262.184 472.514c0-8.296 5.474-15.022 12.23-15.022 6.754 0 12.23 6.726 12.23 15.022 0 8.297-5.476 15.023-12.23 15.023-6.756 0-12.23-6.726-12.23-15.023" style="fill:url(#l);stroke:none" transform="matrix(1.33333 0 0 -1.33333 -110.068 778.64)"/><path d="M215.216 440.569c0-8.296 5.476-15.022 12.231-15.022s12.23 6.726 12.23 15.022-5.475 15.023-12.23 15.023c-6.755 0-12.231-6.727-12.231-15.023" style="fill:url(#m);stroke:none" transform="matrix(1.33333 0 0 -1.33333 -110.068 778.64)"/><path d="M206.163 567.656c-7.542-3.627-13.057-7.809-12.32-9.341.737-1.533 7.447.165 14.989 3.793 7.542 3.627 13.059 7.81 12.32 9.343-.184.382-.74.563-1.589.563-2.55 0-7.741-1.636-13.4-4.358" style="fill:url(#n);stroke:none" transform="matrix(1.33333 0 0 -1.33333 -110.068 778.64)"/><path d="M159.085 538.381c-7.542-3.627-13.057-7.81-12.32-9.342.737-1.533 7.447.165 14.989 3.793 7.542 3.627 13.058 7.811 12.32 9.343-.184.383-.74.564-1.589.564-2.55 0-7.741-1.636-13.4-4.358" style="fill:url(#o);stroke:none" transform="matrix(1.33333 0 0 -1.33333 -110.068 778.64)"/><path d="M124.57 536.981c-7.541-3.627-13.056-7.81-12.319-9.342.737-1.532 7.447.166 14.988 3.794 7.542 3.627 13.058 7.81 12.32 9.343-.183.382-.739.563-1.588.563-2.551 0-7.742-1.636-13.401-4.358" style="fill:url(#p);stroke:none" transform="matrix(1.33333 0 0 -1.33333 -110.068 778.64)"/><path d="M170.658 565.32c-7.541-3.627-13.056-7.811-12.319-9.342.737-1.533 7.447.165 14.989 3.793 7.541 3.627 13.057 7.81 12.319 9.343-.183.383-.739.564-1.588.564-2.55-.001-7.742-1.636-13.401-4.358" style="fill:url(#q);stroke:none" transform="matrix(1.33333 0 0 -1.33333 -110.068 778.64)"/><path d="M281.834 487.676s-31.922-73.798-43.946-104.476c-12.023-30.678 3.731-58.043 3.731-58.043s12.438-17.827 29.851-37.313c17.412-19.486 47.678-29.02 47.678-29.02l99.915-25.29c38.557-9.95 50.994 25.29 50.994 25.29s29.021 70.894 36.483 97.427c7.463 26.533 7.463 51.41-12.437 89.55-19.9 38.142-57.213 46.434-57.213 46.434l-105.72 20.73c-2.127.273-4.188.4-6.182.4-28.317-.001-43.154-25.689-43.154-25.689" style="fill:url(#r);stroke:none" transform="matrix(1.33333 0 0 -1.33333 -110.068 778.64)"/><g clip-path="url(#s)" transform="matrix(1.33333 0 0 -1.33333 -110.068 778.64)"><g clip-path="url(#t)" opacity=".3"><path d="m0 0 100.33-19.9s30.68-6.633 19.486-38.971C108.622-91.209 80.43-161.688 80.43-161.688s-13.682-32.337-47.263-24.46c-33.582 7.877-107.793 25.289-107.793 25.289s-25.704 9.536-15.339 36.069c10.364 26.533 41.873 99.501 41.873 99.501S-35.655 3.731 0 0" style="fill:#fff;fill-opacity:1;fill-rule:nonzero;stroke:none" transform="translate(333.658 506.746)"/></g><path d="M0 0c-10.149-5.44-21.907-3.263-26.265 4.864-4.356 8.129.337 19.126 10.486 24.567 10.149 5.442 21.908 3.262 26.263-4.866C14.842 16.439 10.147 5.442 0 0" style="fill:#fff;fill-opacity:1;fill-rule:nonzero;stroke:none" transform="translate(332.014 447.453)"/><path d="M0 0c-10.149-5.44-21.907-3.263-26.265 4.864-4.355 8.128.338 19.126 10.486 24.567 10.149 5.442 21.908 3.262 26.263-4.866C14.843 16.439 10.148 5.442 0 0" style="fill:#fff;fill-opacity:1;fill-rule:nonzero;stroke:none" transform="translate(356.47 402.066)"/><path d="M0 0c-10.148-5.44-21.905-3.263-26.263 4.864-4.356 8.128.337 19.125 10.486 24.567 10.149 5.441 21.906 3.262 26.263-4.866C14.843 16.439 10.149 5.442 0 0" style="fill:#fff;fill-opacity:1;fill-rule:nonzero;stroke:none" transform="translate(302.45 373.135)"/><path d="M0 0c-10.734-5.753-23.17-3.451-27.777 5.146-4.61 8.598.354 20.23 11.089 25.984 10.736 5.757 23.172 3.451 27.78-5.146C15.7 17.39 10.736 5.757 0 0" style="fill:#fff;fill-opacity:1;fill-rule:nonzero;stroke:none" transform="translate(411.403 430.631)"/><path d="M0 0c-10.734-5.754-23.17-3.451-27.778 5.146-4.609 8.597.354 20.229 11.09 25.984 10.735 5.756 23.171 3.451 27.78-5.147C15.7 17.39 10.736 5.757 0 0" style="fill:#fff;fill-opacity:1;fill-rule:nonzero;stroke:none" transform="translate(380.593 354.574)"/></g><path d="m461.765 446.198-19.59-52.323s-12.437-29.539-21.765-55.348c-9.328-25.808 5.286-61.254 21.765-80.222 16.48-18.967 25.187 1.244 25.187 1.244l29.229 79.29s7.774 18.345 11.504 39.8c3.731 21.455-5.108 47.763-20.832 70.272-4.853 6.946-9.137 9.347-12.743 9.346-8.081-.002-12.755-12.059-12.755-12.059" style="fill:url(#u);stroke:none" transform="matrix(1.33333 0 0 -1.33333 -110.068 778.64)"/><path d="M248.253 324.329s8.292-12.438 26.306-33.168c18.015-20.729 45.418-29.85 45.418-29.85s92.867-24.046 104.24-26.118c11.372-2.074 15.99 9.536-2.252 37.312-18.242 27.777-55.97 38.971-55.97 38.971l-51.432 12.853s-30.656 8.291-52.629 12.022c-2.327.395-4.314.571-6.008.571-14.301 0-7.673-12.593-7.673-12.593" style="fill:url(#v);stroke:none" transform="matrix(1.33333 0 0 -1.33333 -110.068 778.64)"/><path d="M457.623 352.903c-2.283-10.675-1.003-19.997 2.856-20.823 3.861-.827 8.844 7.155 11.126 17.83 2.286 10.676 1.006 19.998-2.855 20.824-.185.04-.371.059-.56.059-3.77-.001-8.392-7.724-10.567-17.89" style="fill:url(#w);stroke:none" transform="matrix(1.33333 0 0 -1.33333 -110.068 778.64)"/><path d="M351.345 301.953c-1.205-2.91 5.847-8.592 15.751-12.695 9.904-4.102 18.909-5.07 20.114-2.16 1.205 2.91-5.847 8.592-15.751 12.695-6.044 2.503-11.753 3.839-15.559 3.839-2.431-.001-4.086-.546-4.555-1.679" style="fill:url(#x);stroke:none" transform="matrix(1.33333 0 0 -1.33333 -110.068 778.64)"/><path d="M324.908 293.368c-1.206-2.91 5.845-8.592 15.748-12.694 9.905-4.103 18.91-5.071 20.115-2.16 1.205 2.909-5.848 8.591-15.751 12.694-6.045 2.503-11.754 3.839-15.559 3.839-2.43 0-4.084-.545-4.553-1.679" style="fill:url(#y);stroke:none" transform="matrix(1.33333 0 0 -1.33333 -110.068 778.64)"/><path d="M300.615 284.262c-1.204-2.909 5.847-8.592 15.75-12.694 9.905-4.102 18.91-5.07 20.115-2.16 1.205 2.909-5.848 8.592-15.752 12.693-6.045 2.504-11.753 3.839-15.559 3.839-2.429 0-4.084-.545-4.554-1.678" style="fill:url(#z);stroke:none" transform="matrix(1.33333 0 0 -1.33333 -110.068 778.64)"/><g clip-path="url(#A)" transform="matrix(1.33333 0 0 -1.33333 -110.068 778.64)"><path d="M0 0s-11.108 6.688-25.517-1.426c-14.451-8.137-9.571-27.615 3.178-30.103 0 0-14.423-.804-14.889 15.21C-37.694-.306-12.612 11.25 0 0" style="fill:#ed1c24;fill-opacity:1;fill-rule:nonzero;stroke:none" transform="translate(338.808 476.373)"/><path d="M0 0s-11.468 9.053-6.963 19.783c5.259 12.521 23.822 13.5 23.822 13.5S3.5 38.378-7.901 26.555C-19.303 14.732-10.897-.521 0 0" style="fill:#d3d2d2;fill-opacity:1;fill-rule:nonzero;stroke:none" transform="translate(316.892 444.98)"/><path d="M0 0s-11.224 7.091-25.778-1.51c-14.599-8.628-9.669-29.276 3.209-31.911 0 0-14.57-.853-15.041 16.121C-38.08-.323-12.742 11.926 0 0" style="fill:#ed1c24;fill-opacity:1;fill-rule:nonzero;stroke:none" transform="translate(418.972 461.068)"/><path d="M0 0s-11.585 9.595-7.033 20.97c5.311 13.274 24.065 14.309 24.065 14.309S3.534 40.681-7.981 28.148C-19.501 15.616-11.01-.554 0 0" style="fill:#d3d2d2;fill-opacity:1;fill-rule:nonzero;stroke:none" transform="translate(396.831 427.79)"/><path d="M0 0s-10.518 7.796-25.797 1.072c-15.326-6.744-12.323-26.756.25-30.498 0 0-14.579.608-13.482 16.711C-37.931 3.39-11.582 12.518 0 0" style="fill:#ed1c24;fill-opacity:1;fill-rule:nonzero;stroke:none" transform="translate(365.71 428.907)"/><path d="M0 0s-10.645 10.201-5.064 20.519c6.511 12.041 25.271 11.2 25.271 11.2S7.271 38.14-5.347 27.401C-17.967 16.664-11.008.544 0 0" style="fill:#d3d2d2;fill-opacity:1;fill-rule:nonzero;stroke:none" transform="translate(340.603 399.575)"/><path d="M0 0s-10.516 7.797-25.796 1.072c-15.326-6.744-12.324-26.756.25-30.498 0 0-14.579.609-13.482 16.71C-37.931 3.39-11.582 12.518 0 0" style="fill:#ed1c24;fill-opacity:1;fill-rule:nonzero;stroke:none" transform="translate(312.02 399.93)"/><path d="M0 0s-10.645 10.201-5.064 20.518C1.447 32.56 20.207 31.719 20.207 31.719S7.271 38.14-5.347 27.401C-17.968 16.664-11.008.544 0 0" style="fill:#d3d2d2;fill-opacity:1;fill-rule:nonzero;stroke:none" transform="translate(286.914 370.599)"/><path d="M0 0s-10.463 8.342-25.807.956c-15.39-7.408-12.542-29.007.011-32.952 0 0-14.585.544-13.362 17.95C-37.933 3.366-11.491 13.435 0 0" style="fill:#ed1c24;fill-opacity:1;fill-rule:nonzero;stroke:none" transform="translate(389.332 383.766)"/><path d="M0 0s-10.573 10.939-4.906 22.131c6.609 13.061 25.378 12.301 25.378 12.301S7.577 41.268-5.135 29.565C-17.85 17.864-11.012.501 0 0" style="fill:#d3d2d2;fill-opacity:1;fill-rule:nonzero;stroke:none" transform="translate(363.977 351.876)"/></g></svg>